<svg id="Layer_1" data-name="Layer 1" xmlns="http://www.w3.org/2000/svg" viewBox="0 0 260 260"><defs><style>.cls-1{fill:#719f94;}.cls-2{fill:#fff;}</style></defs><path class="cls-1" d="M44.67,46H185.93a10,10,0,0,1,10,10V162.48a80.63,80.63,0,0,1-80.63,80.63h0a80.63,80.63,0,0,1-80.63-80.63V56a10,10,0,0,1,10-10Z" transform="translate(135.99 -39.19) rotate(45)"/><path class="cls-2" d="M174,117.5H142.5V86a6,6,0,0,0-6-6h-13a6,6,0,0,0-6,6v31.5H86a6,6,0,0,0-6,6v13a6,6,0,0,0,6,6h31.5V174a6,6,0,0,0,6,6h13a6,6,0,0,0,6-6V142.5H174a6,6,0,0,0,6-6v-13A6,6,0,0,0,174,117.5Z"/></svg>