<?xml version="1.0" encoding="UTF-8"?><svg id="Layer_1" xmlns="http://www.w3.org/2000/svg" viewBox="0 0 260 260"><defs><style>.cls-1{fill:#006b6d;}.cls-2{fill:#fff;}</style></defs><path class="cls-1" d="m44.67,46.01h141.26c5.52,0,10,4.48,10,10v106.47c0,44.5-36.13,80.63-80.63,80.63h0c-44.5,0-80.63-36.13-80.63-80.63V56.01c0-5.52,4.48-10,10-10Z" transform="translate(135.99 -39.19) rotate(45)"/><path class="cls-2" d="m174,117.5h-31.5v-31.5c0-3.31-2.69-6-6-6h-13c-3.31,0-6,2.69-6,6v31.5h-31.5c-3.31,0-6,2.69-6,6v13c0,3.31,2.69,6,6,6h31.5v31.5c0,3.31,2.69,6,6,6h13c3.31,0,6-2.69,6-6v-31.5h31.5c3.31,0,6-2.69,6-6v-13c0-3.31-2.69-6-6-6Z"/></svg>