<svg id="Layer_1" data-name="Layer 1" xmlns="http://www.w3.org/2000/svg" viewBox="0 0 260 260"><defs><style>.cls-1{fill:#EF3A47;}.cls-2{fill:#fff;}</style></defs><path class="cls-1" d="M44.67,46H185.93a10,10,0,0,1,10,10V162.48a80.63,80.63,0,0,1-80.63,80.63h0a80.63,80.63,0,0,1-80.63-80.63V56a10,10,0,0,1,10-10Z" transform="translate(135.99 -39.19) rotate(45)"/><path class="cls-2" d="M113.11,173.79,74.76,135.44a6,6,0,0,1,0-8.49L84,117.76a6,6,0,0,1,8.49,0l24.91,24.92,46.92-46.92a6,6,0,0,1,8.49,0L182,105a6,6,0,0,1,0,8.49L121.6,173.79A6,6,0,0,1,113.11,173.79Z"/></svg>