<svg xmlns="http://www.w3.org/2000/svg" viewBox="0 0 450 700" fill="currentColor">
  <g id="layer1" transform="translate(-320 -390) rotate(-180 450 700)">
    <g id="g4660" stroke="#000" stroke-width="4" transform="matrix(-.85020 .52645 -.52645 -.85020 -668.75 1819.8)">
      <path id="rect4400" d="m-1530.2 119.06c4.0579-10.505 12.936-11.369 20.506-14.849 31.7-10.376 65.714-12.654 101.18-9.8464 19.661 4.8131 36.594 12.353 48.726 24.696v414.2c-23.364 33.294-42.355 22.858-60.104 0l-2.1213-381.05h-108.19v-33.154z" fill="#a7baaf"/>
      <path id="rect4392" d="m-1519.7 214.05h156.66c16.874-0.54882 2.199 1.0805 17.2 9.8958 8.7086 20.263 12.208 39.111 2.1207 59.374-6.9463 1.3984-6.7597 10.143-19.321 9.6573l-74.662 1.4443v78.274l44 0.72318v31.342l-44 8.619-16 400.66c-24.304 19.662-20.89 22.859-49.994 0l-16-599.99z" fill="#c60c0d"/>
      <rect id="rect4395" height="21.92" width="100.41" y="192.52" x="-1530.2" fill="#d9f1e4"/>
      <path id="rect4397" d="m-1436.6 322.63c-3.4088-5.6168 3.3294-21.244 20.445-19.32h52.387c12.677 0.52241 22.761 3.1588 20.506 18.613v21.213c2.7302 11.825-4.4824 23.88-20.564 20.704h-52.924c-20.087 5.0806-22.08-12.872-19.85-20.704v-20.506z" fill="#7d8b83"/>
    </g>
  </g>
</svg>
