<?xml version="1.0" encoding="UTF-8"?><svg id="Layer_1" xmlns="http://www.w3.org/2000/svg" xmlns:xlink="http://www.w3.org/1999/xlink" viewBox="0 0 260 260"><defs><style>.cls-1{fill:url(#linear-gradient);}.cls-2{fill:#fff;}.cls-3{fill:#7a7363;}</style><linearGradient id="linear-gradient" x1="45" y1="140" x2="260" y2="140" gradientUnits="userSpaceOnUse"><stop offset="0" stop-color="#000" stop-opacity=".2"/><stop offset="1" stop-color="#000" stop-opacity="0"/></linearGradient></defs><rect class="cls-3" width="260" height="260" rx="32" ry="32"/><path class="cls-1" d="m217.94,22.99c-1.88-1.92-4.45-2.99-7.14-2.99h-31.8c-2.21,0-4,1.79-4,4v26.71l-21-26.87c-1.9-2.43-4.8-3.84-7.88-3.84h-32.12c-2.21,0-4,1.79-4,4v26.71h-.67l-21.33-26.92c-1.9-2.39-4.78-3.79-7.84-3.79h-31.16c-2.21,0-4,1.79-4,4v78.82c0,5.83,2.54,11.36,6.96,15.16l21.09,18.15-11.61,51.98c-.88,3.92.68,7.98,3.95,10.32l61.57,61.57h101.04c17.67,0,32-14.33,32-32V65.55l-42.06-42.56Z"/><path d="m211,20h-32c-2.21,0-4,1.79-4,4v27h-25v-27c0-2.21-1.79-4-4-4h-32c-2.21,0-4,1.79-4,4v27h-25v-27c0-2.21-1.79-4-4-4h-32c-2.21,0-4,1.79-4,4v76c0,11.05,8.95,20,20,20h11.65l-15.21,68.11c-.88,3.92.68,7.98,3.95,10.32l52.98,37.85c6.95,4.97,16.3,4.97,23.25,0l52.98-37.85c3.27-2.33,4.82-6.4,3.95-10.32l-15.21-68.11h11.65c11.05,0,20-8.95,20-20V24c0-2.21-1.79-4-4-4Z"/><path class="cls-2" d="m211,20h-32c-2.21,0-4,1.79-4,4v27h-25v-27c0-2.21-1.79-4-4-4h-32c-2.21,0-4,1.79-4,4v27h-25v-27c0-2.21-1.79-4-4-4h-32c-2.21,0-4,1.79-4,4v76c0,11.05,8.95,20,20,20h11.65l-15.21,68.11c-.88,3.92.68,7.98,3.95,10.32l52.98,37.85c6.95,4.97,16.3,4.97,23.25,0l52.98-37.85c3.27-2.33,4.82-6.4,3.95-10.32l-15.21-68.11h11.65c11.05,0,20-8.95,20-20V24c0-2.21-1.79-4-4-4Z"/></svg>