<?xml version="1.0" encoding="UTF-8"?><svg id="Layer_1" xmlns="http://www.w3.org/2000/svg" xmlns:xlink="http://www.w3.org/1999/xlink" viewBox="0 0 260 260"><defs><style>.cls-1{fill:url(#linear-gradient);}.cls-2{fill:#fff;}.cls-3{fill:#747578;}</style><linearGradient id="linear-gradient" x1="52.87" y1="140" x2="260" y2="140" gradientUnits="userSpaceOnUse"><stop offset="0" stop-color="#000" stop-opacity=".2"/><stop offset="1" stop-color="#000" stop-opacity="0"/></linearGradient></defs><rect class="cls-3" width="260" height="260" rx="32" ry="32"/><path class="cls-1" d="m183.76,37.78c-1.13-1.14-2.66-1.78-4.26-1.78h-9.19c-.82,0-1.58.26-2.22.69l-9.29-10.64c-1.14-1.3-2.79-2.05-4.52-2.05h-8.89c-1.96,0-3.62,1.41-3.95,3.34l-1.2,7.2-11.46-12.58c-1.14-1.25-2.75-1.96-4.44-1.96h-8.61c-2.11,0-3.85,1.63-3.99,3.73l-.99,14.79-10.99-11.65c-1.13-1.2-2.71-1.88-4.36-1.88h-8.52c-2.17,0-3.94,1.73-4,3.89l-1.9,71.11-14.44-11.89c-1.48-1.22-3.63-1.22-5.1.01l-7.15,5.96c-1.37,1.14-1.82,3.04-1.11,4.67l16.06,36.84,8.04,7.05-14.96,44.81c-1.35,4.04.01,8.46,3.35,11.05l61.52,61.49h100.8c17.67,0,32-14.33,32-32v-113.26l-76.24-76.96Z"/><path class="cls-2" d="m53.2,98.75l16.06,36.84c9.95-24.67,33.87-40.99,60.75-40.99,21.14,0,40.45,10.09,52.58,26.4l.4-80.98c.01-2.22-1.78-4.02-4-4.02h-8.67c-1.92,0-3.57,1.36-3.93,3.25-2.04,10.64-8.38,43.75-8.38,43.75V28c0-2.21-1.79-4-4-4h-8.61c-1.96,0-3.62,1.41-3.95,3.34l-8.44,50.66-4.68-54.34c-.18-2.07-1.91-3.66-3.99-3.66h-8.59c-2.11,0-3.85,1.63-3.99,3.73l-3.75,56.27-8.45-51.65c-.32-1.93-1.99-3.35-3.95-3.35h-8.71c-2.17,0-3.94,1.73-4,3.89l-1.9,71.11-14.44-11.89c-1.48-1.22-3.63-1.22-5.1.01l-7.15,5.96c-1.37,1.14-1.82,3.04-1.11,4.67Z"/><path class="cls-2" d="m130,104.6h0c-23.89,0-45.1,15.28-52.67,37.94l-14.99,44.91c-1.39,4.16.1,8.74,3.66,11.3l52.35,37.51c6.96,4.99,16.33,4.99,23.3,0l52.35-37.51c3.57-2.55,5.05-7.14,3.66-11.3l-14.99-44.91c-7.57-22.66-28.78-37.94-52.67-37.94Z"/></svg>