<svg id="Layer_1" data-name="Layer 1" xmlns="http://www.w3.org/2000/svg" viewBox="0 0 260 260"><defs><style>.cls-1{fill:#e9831c;}.cls-2{fill:#fff;}</style></defs><path class="cls-1" d="M44.67,46H185.93a10,10,0,0,1,10,10V162.48a80.63,80.63,0,0,1-80.63,80.63h0a80.63,80.63,0,0,1-80.63-80.63V56a10,10,0,0,1,10-10Z" transform="translate(135.99 -39.19) rotate(45)"/><path class="cls-2" d="M160,152.15a30,30,0,0,1-60,0c0-17.05,18.69-50.21,26.57-63.42a4,4,0,0,1,6.86,0C141.31,101.94,160,135.1,160,152.15Z"/></svg>