<?xml version="1.0" ?><svg id="Слой_1" style="enable-background:new -430 431 139 139;" version="1.1" viewBox="-430 431 139 139" xml:space="preserve" xmlns="http://www.w3.org/2000/svg" xmlns:xlink="http://www.w3.org/1999/xlink"><style type="text/css">
	.st0{fill:none;stroke:#000000;stroke-width:6;stroke-miterlimit:10;}
</style><g id="Слой_2"><path class="st0" d="M-400.5,500.5c0,0-0.1-3.5,0.6-5.7l-11.7-9.1c0,0-1-1,0-2.7l10.6-18.2c0,0,1.3-2,4.5-0.6l11.1,5   c0,0,4.8-4.1,10.1-5.5l1.9-14.1c0,0,0-2.5,3.7-2.5h9.2" id="XMLID_4_"/><path class="st0" d="M-379.9,500.5c0,0-0.1-19.5,19.4-19.7" id="XMLID_6_"/><path class="st0" d="M-320.4,500.5c0,0,0.1-3.5-0.6-5.7l11.7-9.1c0,0,1-1,0-2.7l-10.6-18.2c0,0-1.3-2-4.5-0.6   l-11.1,5c0,0-4.8-4.1-10.1-5.5l-1.9-14.1c0,0,0-2.5-3.7-2.5h-9.2" id="XMLID_8_"/><path class="st0" d="M-341,500.5c0,0,0.1-19.5-19.4-19.7" id="XMLID_7_"/><path class="st0" d="M-320.4,500.5c0,0,0.1,3.5-0.6,5.7l11.7,9.1c0,0,1,1,0,2.7l-10.6,18.2c0,0-1.3,2-4.5,0.6   l-11.1-5c0,0-4.8,4.1-10.1,5.5l-1.9,14.1c0,0,0,2.5-3.7,2.5h-9.2" id="XMLID_10_"/><path class="st0" d="M-341,500.5c0,0,0.1,19.5-19.4,19.7" id="XMLID_9_"/><path class="st0" d="M-400.5,500.5c0,0-0.1,3.5,0.6,5.7l-11.7,9.1c0,0-1,1,0,2.7l10.6,18.2c0,0,1.3,2,4.5,0.6   l11.1-5c0,0,4.8,4.1,10.1,5.5l1.9,14.1c0,0,0,2.5,3.7,2.5h9.2" id="XMLID_12_"/><path class="st0" d="M-379.9,500.5c0,0-0.1,19.5,19.4,19.7" id="XMLID_11_"/></g></svg>