<?xml version="1.0" encoding="UTF-8"?>
<svg version="1.1" id="Capa_1" xmlns="http://www.w3.org/2000/svg" xmlns:xlink="http://www.w3.org/1999/xlink" x="0px" y="0px"
	 viewBox="0 0 512 512" style="enable-background:new 0 0 488.3 488.3;" xml:space="preserve">
	<g>
		<path d="M466.611,241.22l-65.741-61.039c0.043-0.341,0.196-0.631,0.196-0.981V42.667c0-4.719-3.823-8.533-8.533-8.533H332.8
			c0-4.719-3.823-8.533-8.533-8.533h-34.133V8.533C290.133,3.814,286.31,0,281.6,0H162.133c-4.71,0-8.533,3.814-8.533,8.533V25.6
			h-34.133c-4.71,0-8.533,3.814-8.533,8.533H51.2c-4.71,0-8.533,3.814-8.533,8.533v401.075c0,4.71,3.806,8.525,8.516,8.533
			l93.884,0.196v50.995c0,2.27,0.896,4.437,2.5,6.033c1.604,1.596,3.772,2.5,6.033,2.5h307.2c4.71,0,8.533-3.814,8.533-8.533v-256
			C469.333,245.094,468.343,242.825,466.611,241.22z M439.066,238.933h-89.199V156.1L439.066,238.933z M128,42.667h34.133
			c4.71,0,8.533-3.814,8.533-8.533V17.067h102.4v17.067c0,4.719,3.823,8.533,8.533,8.533h34.133v25.6H128V42.667z M145.067,136.533
			c0,0.128,0,0.256,0.009,0.384l-0.009,298.479l-85.333-0.179V51.2h51.2v25.6c0,4.719,3.823,8.533,8.533,8.533h204.8
			c4.71,0,8.533-3.814,8.533-8.533V51.2H384v113.306l-36.855-34.227c-1.579-1.459-3.661-2.278-5.811-2.278H153.6
			C148.89,128,145.067,131.814,145.067,136.533z M452.267,494.933H162.133l0.009-349.867H332.8v102.4
			c0,4.719,3.823,8.533,8.533,8.533h110.933V494.933z"/>
	</g>
</svg>
