<svg width="50" id="Layer_1" data-name="Layer 1" xmlns="http://www.w3.org/2000/svg" viewBox="0 0 260 260"><defs><style>.cls-1{fill:#5f8db5;}.cls-2{fill:#fff;}</style></defs><path class="cls-1" d="M44.67,46H185.93a10,10,0,0,1,10,10V162.48a80.63,80.63,0,0,1-80.63,80.63h0a80.63,80.63,0,0,1-80.63-80.63V56a10,10,0,0,1,10-10Z" transform="translate(135.99 -39.19) rotate(45)"/><path class="cls-2" d="M98.58,85v90.08a2.47,2.47,0,0,0,3.73,2.12l75.06-44.54a2.47,2.47,0,0,0,0-4.24L102.34,82.88A2.48,2.48,0,0,0,98.58,85Z"/></svg>