<?xml version="1.0" encoding="UTF-8"?><svg id="Layer_1" xmlns="http://www.w3.org/2000/svg" xmlns:xlink="http://www.w3.org/1999/xlink" viewBox="0 0 260 260"><defs><style>.cls-1{fill:url(#linear-gradient);}.cls-2{fill:#fff;}.cls-3{fill:#995ea8;}</style><linearGradient id="linear-gradient" x1="22" y1="141" x2="260" y2="141" gradientUnits="userSpaceOnUse"><stop offset="0" stop-color="#000" stop-opacity=".2"/><stop offset="1" stop-color="#000" stop-opacity="0"/></linearGradient></defs><rect class="cls-3" width="260" height="260" rx="32" ry="32"/><path class="cls-1" d="m260,228v-78.11l-25.07-25.07-18.87-18.87L135.04,24.93c-3.91-3.91-10.24-3.91-14.14,0L45.62,100.21c-31.49,31.49-31.49,82.54,0,114.03h0c9.34,9.34,30.14,30.14,45.76,45.76h136.63c17.67,0,32-14.33,32-32Z"/><path class="cls-2" d="m44.67,46.01h141.26c5.52,0,10,4.48,10,10v106.47c0,44.5-36.13,80.63-80.63,80.63h0c-44.5,0-80.63-36.13-80.63-80.63V56.01c0-5.52,4.48-10,10-10Z" transform="translate(135.99 -39.19) rotate(45)"/><path class="cls-3" d="m165.36,94.64c-19.53-19.53-51.18-19.53-70.71,0l-35.36,35.36,35.36,35.36c19.53,19.53,51.18,19.53,70.71,0l35.36-35.36-35.36-35.36Zm-35.36,60.36c-13.81,0-25-11.19-25-25s11.19-25,25-25,25,11.19,25,25-11.19,25-25,25Z"/></svg>