<?xml version="1.0" encoding="UTF-8"?><svg id="Layer_1" xmlns="http://www.w3.org/2000/svg" viewBox="0 0 260 260"><defs><style>.cls-1{fill:#fff;}.cls-2{fill:#ab650f;}</style></defs><path class="cls-2" d="m44.67,46.01h141.26c5.52,0,10,4.48,10,10v106.47c0,44.5-36.13,80.63-80.63,80.63h0c-44.5,0-80.63-36.13-80.63-80.63V56.01c0-5.52,4.48-10,10-10Z" transform="translate(135.99 -39.19) rotate(45)"/><path class="cls-1" d="m160,152.15c0,16.57-13.43,30-30,30s-30-13.43-30-30,18.69-50.21,26.57-63.42c1.55-2.6,5.31-2.6,6.87,0,7.88,13.21,26.57,46.37,26.57,63.42Z"/></svg>