<?xml version="1.0" encoding="UTF-8"?><svg id="Layer_1" xmlns="http://www.w3.org/2000/svg" viewBox="0 0 260 260"><defs><style>.cls-1{fill:#fff;}.cls-2{fill:#995ea8;}</style></defs><path class="cls-2" d="m44.67,46.01h141.26c5.52,0,10,4.48,10,10v106.47c0,44.5-36.13,80.63-80.63,80.63h0c-44.5,0-80.63-36.13-80.63-80.63V56.01c0-5.52,4.48-10,10-10Z" transform="translate(135.99 -39.19) rotate(45)"/><path class="cls-1" d="m165.36,94.64c-19.53-19.53-51.18-19.53-70.71,0l-35.36,35.36,35.36,35.36c19.53,19.53,51.18,19.53,70.71,0l35.36-35.36-35.36-35.36Zm-35.36,60.36c-13.81,0-25-11.19-25-25s11.19-25,25-25,25,11.19,25,25-11.19,25-25,25Z"/></svg>