<?xml version="1.0" encoding="UTF-8"?><svg id="Layer_1" xmlns="http://www.w3.org/2000/svg" viewBox="0 0 260 260"><defs><style>.cls-1{fill:#fff;}.cls-2{fill:#b1282f;}</style></defs><path class="cls-2" d="m44.67,46.01h141.26c5.52,0,10,4.48,10,10v106.47c0,44.5-36.13,80.63-80.63,80.63h0c-44.5,0-80.63-36.13-80.63-80.63V56.01c0-5.52,4.48-10,10-10Z" transform="translate(135.99 -39.19) rotate(45)"/><path class="cls-1" d="m113.11,173.79l-38.35-38.35c-2.34-2.34-2.34-6.14,0-8.49l9.19-9.19c2.34-2.34,6.14-2.34,8.49,0l24.92,24.92,46.92-46.92c2.34-2.34,6.14-2.34,8.49,0l9.19,9.19c2.34,2.34,2.34,6.14,0,8.49l-60.35,60.35c-2.34,2.34-6.14,2.34-8.49,0Z"/></svg>